# Blender v3.4.1 OBJ File: 'untitled.blend'
# www.blender.org
o Cube_Cube.002
v 1.500000 -1.500000 -3.500000
v 1.500000 -0.014191 -3.500000
v 1.500000 -1.469722 3.812887
v 1.500000 1.474614 3.237662
v -1.500000 -1.500000 -3.500000
v -1.500000 -0.014191 -3.500000
v -1.500000 -1.469722 3.812888
v -1.500000 1.474614 3.237662
v 1.500000 -1.500000 -0.000000
v 1.500000 0.000000 -3.500000
v 1.500000 1.500000 -0.000000
v 1.500000 0.002446 3.525275
v 0.000000 -1.469722 3.812888
v 0.000000 1.474614 3.237662
v -1.500000 0.002446 3.525275
v -1.500000 -1.500000 0.000000
v -1.500000 1.500000 0.000000
v -1.500000 0.000000 -3.500000
v -0.000000 -1.500000 -3.500000
v -0.000000 -0.014191 -3.500000
v -0.000000 0.000000 -3.500000
v -1.500000 0.000000 0.000000
v 1.500000 0.000000 -0.000000
v -1.500000 -1.500000 1.750000
v -1.500000 -0.014191 -1.750000
v -1.500000 -0.750000 -3.500000
v -0.750000 -1.500000 -3.500000
v 1.500000 -1.500000 1.750000
v 1.500000 -0.750000 -3.500000
v 1.500000 -0.014191 -1.750000
v 0.750000 -1.500000 -3.500000
v -0.750000 1.500000 0.000000
v 0.750000 1.500000 -0.000000
v 0.750000 0.000000 -3.500000
v -0.750000 0.000000 -3.500000
v -1.500000 0.000000 -1.750000
v -1.500000 0.000000 1.309109
v -1.500000 -0.750000 0.000000
v -1.500000 1.394965 0.000000
v 1.500000 0.000000 1.309108
v 1.500000 0.000000 -1.750000
v 1.500000 -0.750000 -0.000000
v 1.500000 1.394965 -0.000000
v 1.500000 0.001271 -1.554799
v 1.500000 -0.750000 -1.750000
v 1.500000 -0.750000 1.750000
v -1.500000 1.409082 1.309109
v -1.500000 -0.750000 1.750000
v -1.500000 -0.750000 -1.750000
v -0.750000 -0.014191 -1.750000
v 0.750000 -0.014191 -1.750000
v -1.500000 0.000921 -1.567417
v 1.500000 1.409082 1.309108
v 1.500000 -1.500000 0.875000
v -1.500000 1.500000 0.875000
v -1.500000 0.000000 0.434109
v 1.500000 1.500000 0.875000
v -1.500000 -1.500000 0.875000
v 1.500000 0.000000 0.434108
v -1.500000 1.402024 0.434109
v 1.500000 1.402024 0.434108
v 1.500000 1.500000 2.625000
v 1.500000 0.000000 -2.625000
v 1.500000 0.000000 2.625000
v -1.500000 -1.500000 -2.625000
v -1.500000 1.500000 2.625000
v -1.500000 0.000000 -2.625000
v -1.500000 0.000000 2.625000
v 1.500000 -0.750000 2.625000
v -1.500000 1.409082 2.625000
v -1.500000 -0.750000 2.625000
v 1.500000 -1.500000 -2.625000
v 1.500000 1.409082 2.625000
v -1.500000 -1.500000 3.062500
v 1.500000 0.000000 2.621608
v 1.500000 -0.750000 3.062500
v 1.500000 1.409082 2.621608
v 1.500000 -1.500000 3.062500
v -1.500000 0.000000 2.621609
v -1.500000 1.409082 2.621609
v -1.500000 -0.750000 3.062500
v 1.500000 -0.750000 -2.625000
v -1.500000 -0.750000 -2.625000
v -1.500000 -1.500000 -0.875000
v 1.500000 0.000000 -0.875000
v 1.500000 -1.500000 -0.875000
v -1.500000 0.000000 -0.875000
v 1.500000 -0.750000 -0.875000
v -1.500000 -0.750000 -0.875000
v 1.500000 -1.500000 -1.312500
v -1.500000 0.000000 -1.312500
v -1.500000 -0.750000 -1.312500
v -1.500000 -1.500000 -1.312500
v 1.500000 0.000000 -1.312500
v 1.500000 -0.750000 -1.312500
v -1.500000 -1.500000 -2.187500
v 1.500000 0.000000 -2.187500
v 1.500000 -0.750000 -2.187500
v -1.500000 -0.750000 -2.187500
v -1.500000 0.000000 -2.187500
v 1.500000 -1.500000 -2.187500
vt 0.562500 0.531250
vt 0.562500 0.515625
vt 0.625000 0.531250
vt 0.156467 0.902277
vt 0.167848 0.902277
vt 0.156467 0.913658
vt 0.122323 0.816917
vt 0.122323 0.811226
vt 0.133704 0.811226
vt 0.133704 0.905122
vt 0.122323 0.902277
vt 0.133704 0.902277
vt 0.122323 0.905122
vt 0.133704 0.907968
vt 0.122323 0.907968
vt 0.110942 0.896586
vt 0.122323 0.890896
vt 0.122323 0.896586
vt 0.145086 0.885205
vt 0.156467 0.890896
vt 0.145086 0.890896
vt 0.110942 0.890896
vt 0.190611 0.902277
vt 0.179230 0.913658
vt 0.122323 0.899432
vt 0.110942 0.899432
vt 0.133704 0.896586
vt 0.156467 0.788464
vt 0.145086 0.799845
vt 0.145086 0.788464
vt 0.122323 0.782773
vt 0.110942 0.785618
vt 0.110942 0.782773
vt 0.145086 0.879514
vt 0.156467 0.885205
vt 0.110942 0.870978
vt 0.110942 0.868133
vt 0.122323 0.870978
vt 0.133704 0.868133
vt 0.133704 0.870978
vt 0.145086 0.870978
vt 0.201992 0.913658
vt 0.122323 0.777082
vt 0.133704 0.816917
vt 0.122323 0.819762
vt 0.133704 0.913658
vt 0.122323 0.913658
vt 0.133704 0.899432
vt 0.156467 0.816917
vt 0.201992 0.885205
vt 0.190611 0.890896
vt 0.133704 0.822608
vt 0.110942 0.822608
vt 0.122323 0.785618
vt 0.088272 0.854713
vt 0.078740 0.852330
vt 0.126400 0.897608
vt 0.201992 0.902277
vt 0.133704 0.819762
vt 0.145086 0.819762
vt 0.156467 0.868133
vt 0.145086 0.902277
vt 0.145086 0.805536
vt 0.133704 0.805536
vt 0.156467 0.799845
vt 0.145086 0.811226
vt 0.122323 0.799845
vt 0.133704 0.799845
vt 0.133704 0.879514
vt 0.133704 0.885205
vt 0.156467 0.822608
vt 0.110942 0.907968
vt 0.110942 0.905122
vt 0.110942 0.885205
vt 0.122323 0.879514
vt 0.133704 0.925040
vt 0.110942 0.925040
vt 0.110942 0.777082
vt 0.110942 0.794154
vt 0.110942 0.791309
vt 0.122323 0.791309
vt 0.156467 0.873824
vt 0.562500 0.218750
vt 0.625000 0.218750
vt 0.562500 0.234375
vt 0.110942 0.845370
vt 0.179230 0.868133
vt 0.500000 0.218750
vt 0.500000 0.234375
vt 0.437500 0.234375
vt 0.110942 0.819762
vt 0.122323 0.873824
vt 0.156467 0.805536
vt 0.145086 0.816917
vt 0.145086 0.873824
vt 0.133704 0.890896
vt 0.133704 0.782773
vt 0.133704 0.785618
vt 0.167848 0.890896
vt 0.156467 0.845370
vt 0.201992 0.890896
vt 0.110942 0.811226
vt 0.110942 0.805536
vt 0.110942 0.799845
vt 0.110942 0.913658
vt 0.110942 0.879514
vt 0.133704 0.936421
vt 0.133704 0.947802
vt 0.110942 0.947802
vt 0.133704 0.959184
vt 0.122323 0.959184
vt 0.110942 0.959184
vt 0.110942 0.936421
vt 0.122323 0.794154
vt 0.201992 0.868133
vt 0.500000 0.515625
vt 0.500000 0.531250
vt 0.437500 0.531250
vt 0.133704 0.873824
vt 0.133704 0.791309
vt 0.133704 0.794154
vt 0.122323 0.788464
vt 0.133704 0.788464
vt 0.133704 0.777082
vn 1.0000 0.0000 0.0000
vn 0.0000 1.0000 0.0000
vn -1.0000 0.0000 0.0000
vn 0.0000 0.0000 -1.0000
vn 0.0000 0.1917 0.9814
vn 0.0000 0.9991 0.0414
vn 0.0152 0.9999 0.0043
vn 0.0000 1.0000 0.0078
vn -0.0152 0.9999 0.0043
s off
f 70/1/1 80/2/1 66/3/1
f 25/4/2 50/5/2 6/6/2
f 69/7/1 46/8/1 40/9/1
f 100/10/3 49/11/3 36/12/3
f 99/13/3 67/14/3 83/15/3
f 84/16/3 38/17/3 89/18/3
f 60/19/3 17/20/3 39/21/3
f 84/16/3 16/22/3 38/17/3
f 50/5/2 51/23/2 20/24/2
f 89/18/3 92/25/3 93/26/3
f 92/25/3 89/18/3 87/27/3
f 30/28/1 43/29/1 44/30/1
f 82/31/1 101/32/1 72/33/1
f 60/19/3 47/34/3 55/35/3
f 74/36/3 7/37/3 81/38/3
f 15/39/3 79/40/3 81/38/3
f 79/40/3 15/39/3 80/41/3
f 51/23/2 2/42/2 20/24/2
f 72/33/1 29/43/1 82/31/1
f 64/44/1 76/45/1 69/7/1
f 89/18/3 93/26/3 84/16/3
f 18/46/3 26/47/3 83/15/3
f 87/27/3 91/48/3 92/25/3
f 67/14/3 18/46/3 83/15/3
f 91/48/3 36/12/3 92/25/3
f 99/13/3 49/11/3 100/10/3
f 49/11/3 92/25/3 36/12/3
f 62/49/2 57/50/2 33/51/2
f 76/45/1 12/52/1 3/53/1
f 82/31/1 98/54/1 101/32/1
f 69/7/1 40/9/1 64/44/1
f 4/55/1 77/56/1 62/57/1
f 51/23/2 30/58/2 2/42/2
f 75/59/1 77/60/1 12/52/1
f 8/61/3 80/41/3 15/39/3
f 100/10/3 67/14/3 99/13/3
f 39/21/3 25/4/3 52/62/3
f 61/63/1 40/9/1 59/64/1
f 11/65/1 61/63/1 43/29/1
f 62/49/1 53/66/1 57/50/1
f 42/67/1 23/68/1 59/64/1
f 37/69/3 60/19/3 56/70/3
f 12/52/1 77/60/1 4/71/1
f 65/72/3 96/73/3 99/13/3
f 38/17/3 58/74/3 48/75/3
f 26/47/4 35/76/4 27/77/4
f 72/33/1 1/78/1 29/43/1
f 86/79/1 90/80/1 95/81/1
f 60/19/3 55/35/3 17/20/3
f 80/41/3 8/61/3 66/82/3
f 73/83/3 62/84/3 77/85/3
f 76/45/1 75/59/1 12/52/1
f 13/86/5 12/52/5 14/87/5
f 30/28/1 11/65/1 43/29/1
f 55/35/3 47/34/3 66/82/3
f 64/88/3 75/89/3 76/90/3
f 78/91/1 76/45/1 3/53/1
f 71/92/3 81/38/3 79/40/3
f 61/63/1 57/93/1 53/66/1
f 73/94/1 53/66/1 62/49/1
f 70/95/3 66/82/3 47/34/3
f 20/24/2 6/6/2 50/5/2
f 15/39/3 81/38/3 7/37/3
f 89/18/3 38/17/3 22/96/3
f 63/97/1 97/98/1 98/54/1
f 22/96/3 87/27/3 89/18/3
f 55/35/2 66/82/2 32/99/2
f 66/82/6 8/61/6 14/100/6
f 14/100/6 4/71/6 62/49/6
f 66/82/7 14/100/7 32/99/7
f 32/99/2 17/20/2 55/35/2
f 57/50/2 11/101/2 33/51/2
f 33/51/8 32/99/8 14/100/8
f 14/100/9 62/49/9 33/51/9
f 39/21/3 17/20/3 25/4/3
f 61/63/1 53/66/1 40/9/1
f 11/65/1 57/93/1 61/63/1
f 40/9/1 46/8/1 59/64/1
f 46/8/1 28/102/1 54/103/1
f 54/103/1 9/104/1 42/67/1
f 46/8/1 54/103/1 42/67/1
f 59/64/1 46/8/1 42/67/1
f 37/69/3 47/34/3 60/19/3
f 99/13/3 83/15/3 65/72/3
f 83/15/3 26/47/3 65/72/3
f 26/47/3 5/105/3 65/72/3
f 37/69/3 56/70/3 48/75/3
f 56/70/3 22/96/3 38/17/3
f 38/17/3 16/22/3 58/74/3
f 56/70/3 38/17/3 48/75/3
f 58/74/3 24/106/3 48/75/3
f 21/107/4 34/108/4 31/109/4
f 34/108/4 10/110/4 29/111/4
f 29/111/4 1/112/4 31/109/4
f 34/108/4 29/111/4 31/109/4
f 26/47/4 18/46/4 35/76/4
f 35/76/4 21/107/4 19/113/4
f 19/113/4 21/107/4 31/109/4
f 27/77/4 5/105/4 26/47/4
f 19/113/4 27/77/4 35/76/4
f 95/81/1 88/114/1 86/79/1
f 88/114/1 42/67/1 86/79/1
f 42/67/1 9/104/1 86/79/1
f 8/61/5 15/39/5 14/87/5
f 15/39/5 7/37/5 13/86/5
f 13/86/5 3/53/5 12/52/5
f 15/39/5 13/86/5 14/87/5
f 12/52/5 4/115/5 14/87/5
f 79/116/1 68/117/1 71/118/1
f 68/119/3 37/69/3 71/92/3
f 37/69/3 48/75/3 71/92/3
f 94/120/1 85/121/1 95/81/1
f 85/121/1 23/68/1 88/114/1
f 95/81/1 85/121/1 88/114/1
f 23/68/1 42/67/1 88/114/1
f 95/81/1 45/122/1 94/120/1
f 45/122/1 98/54/1 41/123/1
f 94/120/1 45/122/1 41/123/1
f 97/98/1 41/123/1 98/54/1
f 98/54/1 82/31/1 63/97/1
f 82/31/1 29/43/1 10/124/1
f 10/124/1 63/97/1 82/31/1
