# Blender v3.4.1 OBJ File: ''
# www.blender.org
o Plane.001
v -5.000004 0.000000 -100.000000
v -10.125965 0.000000 -50.000000
v -5.000002 0.000000 -50.000000
v -5.000000 0.000000 0.000000
v -10.125961 0.000000 50.000000
v -4.999998 0.000000 50.000000
v 5.000000 -0.000000 -0.000000
v 0.000002 0.000000 50.000000
v 5.000002 -0.000000 50.000000
v 4.999996 -0.000000 -100.000000
v -0.000002 0.000000 -50.000000
v 4.999998 -0.000000 -50.000000
v 0.000000 0.000000 0.000000
v 10.125961 -0.000000 -50.000000
v 10.125963 -0.000000 -0.000000
v 10.125958 -0.000000 -100.000000
v 0.000004 0.000000 100.000000
v 5.000004 -0.000000 100.000000
v 10.125965 -0.000000 50.000000
v 10.125968 -0.000000 100.000000
v -10.125958 0.000000 100.000000
v -4.999996 0.000000 100.000000
v -10.125963 0.000000 0.000000
v -0.000004 0.000000 -100.000000
v -10.125968 0.000000 -100.000000
vt 0.202155 0.629203
vt 0.160453 0.670905
vt 0.160453 0.629203
vt 0.118750 0.629203
vt 0.077047 0.670905
vt 0.077047 0.629203
vt 0.490625 0.811422
vt 0.448922 0.853125
vt 0.448922 0.811422
vt 0.574030 0.811422
vt 0.532328 0.853125
vt 0.532328 0.811422
vt 0.490625 0.853125
vt 0.160453 0.504095
vt 0.118750 0.545797
vt 0.118750 0.504095
vt 0.202155 0.504095
vt 0.160453 0.545797
vt 0.407220 0.853125
vt 0.407220 0.811422
vt 0.077047 0.504095
vt 0.035345 0.545797
vt 0.035345 0.504095
vt 0.077047 0.545797
vt 0.035345 0.670905
vt 0.035345 0.629203
vt 0.407220 0.894828
vt 0.448922 0.894828
vt 0.118750 0.670905
vt 0.490625 0.894828
vt 0.574030 0.853125
vt 0.532328 0.894828
vt 0.202155 0.670905
vt 0.202155 0.545797
vt 0.574030 0.894828
vn 0.0000 1.0000 -0.0000
s 1
f 1/1/1 2/2/1 3/3/1
f 4/4/1 5/5/1 6/6/1
f 7/7/1 8/8/1 9/9/1
f 10/10/1 11/11/1 12/12/1
f 12/12/1 13/13/1 7/7/1
f 14/14/1 7/15/1 15/16/1
f 16/17/1 12/18/1 14/14/1
f 9/9/1 17/19/1 18/20/1
f 19/21/1 18/22/1 20/23/1
f 15/16/1 9/24/1 19/21/1
f 6/6/1 21/25/1 22/26/1
f 8/8/1 22/27/1 17/19/1
f 13/13/1 6/28/1 8/8/1
f 3/3/1 23/29/1 4/4/1
f 11/11/1 4/30/1 13/13/1
f 24/31/1 3/32/1 11/11/1
f 1/1/1 25/33/1 2/2/1
f 4/4/1 23/29/1 5/5/1
f 7/7/1 13/13/1 8/8/1
f 10/10/1 24/31/1 11/11/1
f 12/12/1 11/11/1 13/13/1
f 14/14/1 12/18/1 7/15/1
f 16/17/1 10/34/1 12/18/1
f 9/9/1 8/8/1 17/19/1
f 19/21/1 9/24/1 18/22/1
f 15/16/1 7/15/1 9/24/1
f 6/6/1 5/5/1 21/25/1
f 8/8/1 6/28/1 22/27/1
f 13/13/1 4/30/1 6/28/1
f 3/3/1 2/2/1 23/29/1
f 11/11/1 3/32/1 4/30/1
f 24/31/1 1/35/1 3/32/1
