P3
20 20
255
46
46
46
46
46
46
46
46
46
46
46
46
46
46
46
46
46
46
46
46
46
46
46
46
46
46
46
46
46
46
46
46
46
46
46
46
46
46
46
46
46
46
46
46
46
46
46
46
46
46
46
46
46
46
46
46
46
46
46
46
46
46
46
46
46
46
46
46
46
46
46
46
46
46
46
46
46
46
46
46
46
46
46
46
46
46
46
46
46
46
46
46
46
46
46
46
46
46
46
46
46
46
46
46
46
46
46
46
46
46
46
46
46
46
46
46
46
46
46
46
46
46
46
46
46
46
46
46
46
46
46
46
46
46
46
46
46
46
46
46
46
46
46
46
46
46
46
46
46
46
46
46
46
46
46
46
46
46
46
46
46
46
46
46
46
46
46
46
46
46
46
46
46
46
46
46
46
46
46
46
46
46
46
46
46
46
46
46
46
46
46
46
46
46
46
46
46
46
46
46
46
46
46
46
46
46
46
46
46
46
46
46
46
40
112
40
18
193
11
18
193
11
23
183
19
46
46
46
46
46
46
46
46
46
46
46
46
46
46
46
46
46
46
46
46
46
46
46
46
46
46
46
46
46
46
46
46
46
46
46
46
46
46
46
46
46
46
46
46
46
46
46
46
37
128
37
11
203
2
10
204
0
13
201
4
32
155
30
46
46
46
46
46
46
46
46
46
46
46
46
46
46
46
46
46
46
46
46
46
46
46
46
46
46
46
46
46
46
46
46
46
46
46
46
46
46
46
46
46
46
46
46
46
36
141
34
10
204
1
10
204
0
10
204
0
20
188
15
38
127
37
46
46
46
46
46
46
46
46
46
46
46
46
46
46
46
46
46
46
46
46
46
46
46
46
46
46
46
46
46
46
46
46
46
46
46
46
46
46
46
46
46
46
34
150
32
12
202
3
10
204
0
10
204
0
10
204
1
24
182
19
38
127
37
46
46
46
46
46
46
46
46
46
45
71
44
40
112
40
38
129
37
40
121
38
43
89
43
46
46
46
46
46
46
46
46
46
46
46
46
46
46
46
30
164
27
10
204
0
10
204
0
14
200
5
10
204
1
10
204
1
24
182
19
38
127
37
46
46
46
46
46
46
38
127
37
17
195
10
12
202
2
11
203
2
13
200
4
13
200
4
13
200
4
13
200
4
13
200
4
11
203
1
10
204
1
10
204
0
10
204
0
11
203
1
11
203
1
10
204
0
10
204
0
12
202
3
36
140
34
46
46
46
38
127
37
13
201
3
10
204
0
10
204
0
10
204
0
10
204
0
10
204
0
10
204
0
10
204
0
10
204
0
10
204
0
10
204
0
10
204
0
10
204
0
10
204
0
10
204
0
10
204
0
10
204
0
36
140
34
46
46
46
40
117
39
23
183
19
17
194
10
14
199
6
14
199
6
13
200
4
13
200
4
13
200
4
13
200
4
11
203
1
10
204
1
10
204
0
10
204
0
10
203
1
11
203
1
10
204
0
10
204
0
12
202
3
36
140
34
46
46
46
46
46
46
46
46
46
46
46
46
46
46
46
46
46
46
46
46
46
46
46
46
46
46
46
46
46
46
46
46
46
26
174
23
10
204
0
10
204
0
15
198
7
10
204
1
10
204
1
24
182
19
38
127
37
46
46
46
46
46
46
46
46
46
46
46
46
46
46
46
46
46
46
46
46
46
46
46
46
46
46
46
46
46
46
46
46
46
46
46
46
26
174
23
10
204
0
10
204
0
11
203
2
10
204
0
20
188
15
38
127
37
46
46
46
46
46
46
46
46
46
46
46
46
46
46
46
46
46
46
46
46
46
46
46
46
46
46
46
46
46
46
46
46
46
46
46
46
46
46
46
26
174
23
10
204
0
10
204
0
10
204
0
18
193
12
32
155
30
46
46
46
46
46
46
46
46
46
46
46
46
46
46
46
46
46
46
46
46
46
46
46
46
46
46
46
46
46
46
46
46
46
46
46
46
46
46
46
46
46
46
32
157
30
10
204
0
10
204
0
14
199
6
28
169
25
46
46
46
46
46
46
46
46
46
46
46
46
46
46
46
46
46
46
46
46
46
46
46
46
46
46
46
46
46
46
46
46
46
46
46
46
46
46
46
46
46
46
46
46
46
38
127
37
18
193
11
18
193
11
23
181
19
46
46
46
46
46
46
46
46
46
46
46
46
46
46
46
46
46
46
46
46
46
46
46
46
46
46
46
46
46
46
46
46
46
46
46
46
46
46
46
46
46
46
46
46
46
46
46
46
46
46
46
46
46
46
46
46
46
46
46
46
46
46
46
46
46
46
46
46
46
46
46
46
46
46
46
46
46
46
46
46
46
46
46
46
46
46
46
46
46
46
46
46
46
46
46
46
46
46
46
46
46
46
46
46
46
46
46
46
46
46
46
46
46
46
46
46
46
46
46
46
46
46
46
46
46
46
46
46
46
46
46
46
46
46
46
46
46
46
46
46
46
46
46
46
46
46
46
46
46
46
46
46
46
46
46
46
46
46
46
46
46
46
46
46
46
46
46
46
46
46
46
46
46
46
46
46
46
46
46
46
46
46
46
46
46
46
46
46
46
46
46
46
46
46
46
46
46
46
46
46
46
46
46
46
46
46
46
46
46
46
46
46
46
46
46
46
46
46
46
46
46
46
46
46
46
46
46
46
46
46
46
46
46
46
46
46
46
46
46
46
46
46
46
46
46
46
46
46
46
46
46
46
46
46
46
