P3
20 20
255
46
46
46
46
46
46
46
46
46
46
46
46
46
46
46
46
46
46
46
46
46
46
46
46
46
46
46
46
46
46
46
46
46
46
46
46
46
46
46
46
46
46
46
46
46
46
46
46
46
46
46
46
46
46
46
46
46
46
46
46
46
46
46
46
46
46
46
46
46
46
46
46
46
46
46
46
46
46
46
46
46
46
46
46
46
46
46
46
46
46
46
46
46
46
46
46
46
46
46
46
46
46
46
46
46
46
46
46
46
46
46
46
46
46
46
46
46
46
46
46
46
46
46
21
159
222
5
178
249
2
181
252
6
178
248
10
174
242
10
174
242
10
174
242
10
174
242
10
174
242
10
174
242
10
174
242
10
174
242
10
174
242
10
174
242
10
174
242
7
177
246
4
180
250
8
176
246
24
154
215
46
46
46
10
174
242
0
183
255
0
183
255
0
183
255
0
183
255
0
183
255
0
183
255
0
183
255
0
183
255
0
183
255
0
183
255
0
183
255
0
183
255
0
183
255
0
183
255
0
183
255
0
183
255
0
183
255
15
169
236
46
46
46
7
177
246
0
183
255
0
183
255
1
182
254
3
180
252
3
180
252
3
180
252
3
180
252
3
180
252
3
180
252
3
180
252
3
180
252
3
180
252
3
180
252
3
180
252
1
182
254
0
183
255
0
183
255
10
174
242
46
46
46
19
164
228
0
183
255
0
183
255
16
169
235
37
116
159
37
116
159
37
116
159
37
116
159
37
116
159
37
116
159
37
116
159
37
116
159
37
116
159
37
116
159
37
116
159
17
165
230
0
182
254
0
182
254
21
160
222
46
46
46
23
156
217
0
182
254
0
182
254
23
156
217
46
46
46
46
46
46
46
46
46
46
46
46
46
46
46
46
46
46
46
46
46
46
46
46
46
46
46
46
46
46
46
46
46
23
156
217
0
182
254
0
182
254
23
156
217
46
46
46
23
156
217
0
182
254
0
182
254
23
156
217
46
46
46
46
46
46
46
46
46
46
46
46
46
46
46
46
46
46
46
46
46
46
46
46
46
46
46
46
46
46
46
46
46
23
156
217
0
182
254
0
182
254
23
156
217
46
46
46
23
156
217
0
182
254
0
182
254
23
156
217
46
46
46
46
46
46
46
46
46
46
46
46
46
46
46
46
46
46
46
46
46
46
46
46
46
46
46
46
46
46
46
46
46
23
156
217
0
182
254
0
182
254
23
156
217
46
46
46
23
156
217
0
182
254
0
182
254
23
156
217
46
46
46
46
46
46
46
46
46
46
46
46
46
46
46
46
46
46
46
46
46
46
46
46
46
46
46
46
46
46
46
46
46
23
156
217
0
182
254
0
182
254
23
156
217
46
46
46
23
156
217
0
182
254
0
182
254
23
156
217
46
46
46
46
46
46
46
46
46
46
46
46
46
46
46
46
46
46
46
46
46
46
46
46
46
46
46
46
46
46
46
46
46
23
156
217
0
182
254
0
182
254
23
156
217
46
46
46
18
164
229
0
182
254
0
182
254
27
147
204
46
46
46
46
46
46
46
46
46
46
46
46
46
46
46
46
46
46
46
46
46
46
46
46
46
46
46
46
46
46
46
46
46
23
156
217
0
182
254
0
182
254
23
156
217
46
46
46
14
170
237
0
183
255
3
180
252
32
135
186
46
46
46
46
46
46
46
46
46
46
46
46
46
46
46
46
46
46
46
46
46
46
46
46
46
46
46
46
46
46
46
46
46
23
156
217
0
182
254
0
182
254
23
156
217
46
46
46
10
174
242
0
183
255
3
180
252
37
116
159
46
46
46
46
46
46
46
46
46
46
46
46
46
46
46
46
46
46
46
46
46
46
46
46
46
46
46
46
46
46
46
46
46
23
156
217
0
182
254
0
182
254
23
156
217
46
46
46
10
174
242
0
183
255
3
180
252
37
116
159
46
46
46
46
46
46
46
46
46
46
46
46
46
46
46
46
46
46
46
46
46
46
46
46
46
46
46
46
46
46
46
46
46
23
156
217
0
182
254
0
182
254
23
156
217
46
46
46
7
177
246
0
183
255
1
182
254
17
166
230
23
156
217
18
164
229
14
170
237
10
174
242
10
174
242
10
174
242
10
174
242
10
174
242
10
174
242
10
174
242
10
174
242
3
180
251
0
183
255
0
183
255
23
156
217
46
46
46
8
176
245
0
183
255
0
183
255
0
183
255
0
182
254
0
182
254
0
183
255
0
183
255
0
183
255
0
183
255
0
183
255
0
183
255
0
183
255
0
183
255
0
183
255
0
183
255
0
183
255
0
182
254
30
141
196
46
46
46
15
169
235
0
182
254
0
183
255
0
182
255
0
182
254
0
182
254
3
180
252
3
180
252
3
180
252
3
180
252
3
180
252
3
180
252
3
180
252
3
180
252
3
180
252
2
181
253
3
180
252
11
173
240
37
114
157
46
46
46
37
114
157
30
141
196
23
156
217
23
156
217
23
156
217
27
147
204
32
135
186
37
116
159
37
116
159
37
116
159
37
116
159
37
116
159
37
116
159
37
116
159
37
116
159
37
116
159
40
102
138
43
81
108
46
46
46
46
46
46
46
46
46
46
46
46
46
46
46
46
46
46
46
46
46
46
46
46
46
46
46
46
46
46
46
46
46
46
46
46
46
46
46
46
46
46
46
46
46
46
46
46
46
46
46
46
46
46
46
46
46
46
46
46
46
46
46
