P3
20 20
255
0
96
255
0
96
255
0
96
255
0
96
255
0
96
255
0
96
255
0
96
255
0
96
255
0
96
255
0
96
255
0
96
255
0
96
255
0
96
255
0
96
255
0
96
255
0
96
255
0
96
255
0
96
255
0
96
255
0
96
255
0
96
255
0
96
255
0
96
255
0
96
255
0
96
255
0
96
255
0
96
255
0
96
255
0
96
255
0
96
255
0
96
255
0
96
255
0
96
255
0
96
255
0
96
255
0
96
255
0
96
255
0
96
255
0
96
255
0
96
255
0
96
255
0
96
255
0
96
255
0
96
255
0
96
255
0
96
255
0
96
255
0
96
255
0
96
255
0
96
255
0
96
255
0
96
255
0
96
255
0
96
255
0
96
255
0
96
255
0
96
255
0
96
255
0
96
255
0
96
255
0
96
255
0
96
255
0
96
255
0
96
255
0
96
255
0
96
255
0
96
255
0
96
255
0
96
255
0
96
255
0
96
255
0
96
255
0
96
255
0
96
255
0
96
255
0
96
255
0
96
255
0
96
255
0
96
255
0
96
255
0
96
255
0
96
255
0
96
255
0
96
255
0
96
255
0
96
255
0
96
255
0
96
255
0
96
255
0
96
255
0
96
255
0
96
255
0
96
255
0
96
255
0
96
255
0
96
255
0
96
255
0
96
255
0
96
255
0
96
255
0
96
255
0
96
255
0
96
255
0
96
255
0
96
255
0
96
255
0
96
255
0
96
255
0
96
255
0
96
255
0
96
255
0
96
255
0
96
255
0
96
255
0
96
255
0
96
255
0
96
255
0
96
255
0
96
255
0
96
255
0
96
255
0
96
255
0
96
255
64
112
255
196
204
255
207
213
255
203
210
255
182
192
255
96
129
255
22
99
255
0
96
255
95
128
255
181
192
255
200
208
255
175
187
255
75
117
255
13
97
255
0
96
255
0
96
255
0
96
255
0
96
255
0
96
255
0
96
255
50
106
255
156
172
255
165
179
255
176
188
255
232
235
255
185
195
255
66
113
255
13
97
255
196
204
255
219
224
255
183
193
255
230
233
255
167
181
255
56
109
255
0
96
255
0
96
255
0
96
255
0
96
255
0
96
255
0
96
255
0
96
255
0
96
255
0
96
255
93
127
255
235
238
255
206
213
255
75
117
255
93
127
255
238
240
255
192
201
255
90
126
255
221
226
255
220
224
255
83
122
255
0
96
255
0
96
255
0
96
255
0
96
255
0
96
255
0
96
255
0
96
255
0
96
255
187
197
255
212
218
255
232
235
255
149
166
255
46
105
255
131
153
255
244
245
255
167
181
255
56
109
255
205
211
255
238
240
255
93
127
255
0
96
255
0
96
255
0
96
255
0
96
255
0
96
255
0
96
255
0
96
255
0
96
255
148
166
255
179
190
255
231
234
255
180
191
255
64
112
255
140
159
255
245
246
255
182
193
255
181
192
255
210
216
255
242
244
255
95
128
255
0
96
255
0
96
255
0
96
255
0
96
255
0
96
255
0
96
255
0
96
255
0
96
255
0
96
255
61
111
255
212
218
255
227
231
255
88
125
255
126
149
255
244
245
255
182
193
255
148
166
255
213
218
255
236
238
255
92
127
255
0
96
255
0
96
255
0
96
255
0
96
255
0
96
255
0
96
255
0
96
255
0
96
255
0
96
255
73
116
255
218
223
255
227
231
255
86
124
255
75
117
255
234
236
255
202
209
255
106
136
255
228
231
255
211
217
255
79
120
255
0
96
255
0
96
255
0
96
255
0
96
255
0
96
255
0
96
255
118
143
255
199
207
255
207
213
255
208
214
255
225
229
255
168
181
255
59
110
255
13
97
255
170
183
255
221
225
255
212
217
255
224
228
255
144
162
255
46
105
255
0
96
255
0
96
255
0
96
255
0
96
255
0
96
255
0
96
255
93
127
255
159
174
255
165
179
255
161
176
255
144
162
255
77
118
255
13
97
255
0
96
255
75
117
255
144
162
255
159
174
255
139
159
255
59
110
255
0
96
255
0
96
255
0
96
255
0
96
255
0
96
255
0
96
255
0
96
255
0
96
255
0
96
255
0
96
255
0
96
255
0
96
255
0
96
255
0
96
255
0
96
255
0
96
255
0
96
255
0
96
255
0
96
255
0
96
255
0
96
255
0
96
255
0
96
255
0
96
255
0
96
255
0
96
255
0
96
255
0
96
255
0
96
255
0
96
255
0
96
255
0
96
255
0
96
255
0
96
255
0
96
255
0
96
255
0
96
255
0
96
255
0
96
255
0
96
255
0
96
255
0
96
255
0
96
255
0
96
255
0
96
255
0
96
255
0
96
255
0
96
255
0
96
255
0
96
255
0
96
255
0
96
255
0
96
255
0
96
255
0
96
255
0
96
255
0
96
255
0
96
255
0
96
255
0
96
255
0
96
255
0
96
255
0
96
255
0
96
255
0
96
255
0
96
255
0
96
255
0
96
255
0
96
255
0
96
255
0
96
255
0
96
255
0
96
255
0
96
255
0
96
255
0
96
255
0
96
255
0
96
255
0
96
255
0
96
255
0
96
255
0
96
255
0
96
255
0
96
255
0
96
255
0
96
255
0
96
255
0
96
255
0
96
255
0
96
255
0
96
255
0
96
255
0
96
255
0
96
255
0
96
255
0
96
255
0
96
255
0
96
255
0
96
255
0
96
255
0
96
255
0
96
255
0
96
255
0
96
255
