P3
20 20
255
0
96
255
0
96
255
0
96
255
0
96
255
0
96
255
0
96
255
0
96
255
0
96
255
0
96
255
0
96
255
0
96
255
0
96
255
0
96
255
0
96
255
0
96
255
0
96
255
0
96
255
0
96
255
0
96
255
0
96
255
0
96
255
0
96
255
0
96
255
0
96
255
0
96
255
0
96
255
0
96
255
0
96
255
0
96
255
0
96
255
0
96
255
0
96
255
0
96
255
0
96
255
0
96
255
0
96
255
0
96
255
0
96
255
0
96
255
0
96
255
0
96
255
0
96
255
0
96
255
0
96
255
0
96
255
0
96
255
0
96
255
0
96
255
0
96
255
0
96
255
0
96
255
0
96
255
0
96
255
0
96
255
0
96
255
0
96
255
0
96
255
0
96
255
0
96
255
0
96
255
0
96
255
0
96
255
0
96
255
0
96
255
0
96
255
0
96
255
0
96
255
0
96
255
0
96
255
0
96
255
0
96
255
0
96
255
0
96
255
0
96
255
0
96
255
0
96
255
0
96
255
0
96
255
0
96
255
0
96
255
0
96
255
0
96
255
0
96
255
0
96
255
0
96
255
0
96
255
0
96
255
0
96
255
0
96
255
0
96
255
0
96
255
0
96
255
0
96
255
0
96
255
0
96
255
0
96
255
0
96
255
0
96
255
0
96
255
0
96
255
0
96
255
0
96
255
0
96
255
0
96
255
0
96
255
0
96
255
0
96
255
0
96
255
0
96
255
0
96
255
0
96
255
0
96
255
0
96
255
0
96
255
0
96
255
0
96
255
0
96
255
0
96
255
0
96
255
0
96
255
0
96
255
0
96
255
0
96
255
0
96
255
83
122
255
213
219
255
246
247
255
255
255
255
193
202
255
0
96
255
0
96
255
126
149
255
233
236
255
248
249
255
210
216
255
56
109
255
0
96
255
0
96
255
0
96
255
0
96
255
0
96
255
0
96
255
0
96
255
0
96
255
222
227
255
231
234
255
95
128
255
0
96
255
0
96
255
0
96
255
22
99
255
241
243
255
213
218
255
104
134
255
250
250
255
187
197
255
0
96
255
0
96
255
0
96
255
0
96
255
0
96
255
0
96
255
0
96
255
93
127
255
255
255
255
156
172
255
0
96
255
0
96
255
0
96
255
0
96
255
122
147
255
255
255
255
159
174
255
0
96
255
224
228
255
233
236
255
0
96
255
0
96
255
0
96
255
0
96
255
0
96
255
0
96
255
0
96
255
134
155
255
255
255
255
228
231
255
250
250
255
239
241
255
141
160
255
0
96
255
148
166
255
255
255
255
142
161
255
0
96
255
213
219
255
246
247
255
0
96
255
0
96
255
0
96
255
0
96
255
0
96
255
0
96
255
0
96
255
144
162
255
255
255
255
213
218
255
66
113
255
225
229
255
239
241
255
0
96
255
149
166
255
255
255
255
182
192
255
225
229
255
213
219
255
246
247
255
0
96
255
0
96
255
0
96
255
0
96
255
0
96
255
0
96
255
0
96
255
117
143
255
255
255
255
173
185
255
0
96
255
190
199
255
254
254
255
13
97
255
122
147
255
255
255
255
159
174
255
0
96
255
224
228
255
233
236
255
0
96
255
0
96
255
0
96
255
0
96
255
0
96
255
0
96
255
0
96
255
22
99
255
243
245
255
212
218
255
64
112
255
224
228
255
232
235
255
0
96
255
22
99
255
241
243
255
213
218
255
104
134
255
250
250
255
187
197
255
0
96
255
0
96
255
0
96
255
0
96
255
0
96
255
0
96
255
0
96
255
0
96
255
126
149
255
231
234
255
251
251
255
231
234
255
121
146
255
0
96
255
0
96
255
127
150
255
234
236
255
248
249
255
211
217
255
56
109
255
0
96
255
0
96
255
0
96
255
0
96
255
0
96
255
0
96
255
0
96
255
0
96
255
0
96
255
0
96
255
0
96
255
0
96
255
0
96
255
0
96
255
0
96
255
0
96
255
0
96
255
0
96
255
0
96
255
0
96
255
0
96
255
0
96
255
0
96
255
0
96
255
0
96
255
0
96
255
0
96
255
0
96
255
0
96
255
0
96
255
0
96
255
0
96
255
0
96
255
0
96
255
0
96
255
0
96
255
0
96
255
0
96
255
0
96
255
0
96
255
0
96
255
0
96
255
0
96
255
0
96
255
0
96
255
0
96
255
0
96
255
0
96
255
0
96
255
0
96
255
0
96
255
0
96
255
0
96
255
0
96
255
0
96
255
0
96
255
0
96
255
0
96
255
0
96
255
0
96
255
0
96
255
0
96
255
0
96
255
0
96
255
0
96
255
0
96
255
0
96
255
0
96
255
0
96
255
0
96
255
0
96
255
0
96
255
0
96
255
0
96
255
0
96
255
0
96
255
0
96
255
0
96
255
0
96
255
0
96
255
0
96
255
0
96
255
0
96
255
0
96
255
0
96
255
0
96
255
0
96
255
0
96
255
0
96
255
0
96
255
0
96
255
0
96
255
0
96
255
0
96
255
0
96
255
0
96
255
0
96
255
0
96
255
0
96
255
0
96
255
0
96
255
0
96
255
0
96
255
0
96
255
0
96
255
0
96
255
0
96
255
0
96
255
0
96
255
0
96
255
0
96
255
0
96
255
0
96
255
0
96
255
0
96
255
0
96
255
0
96
255
0
96
255
0
96
255
0
96
255
0
96
255
0
96
255
0
96
255
0
96
255
