P3
20 20
255
46
46
46
46
46
46
46
46
46
46
46
46
46
46
46
46
46
46
46
46
46
46
46
46
46
46
46
46
46
46
46
46
46
46
46
46
46
46
46
46
46
46
46
46
46
46
46
46
46
46
46
46
46
46
46
46
46
46
46
46
46
46
46
46
46
46
46
46
46
46
46
46
46
46
46
46
46
46
46
46
46
46
46
46
46
46
46
46
46
46
46
46
46
46
46
46
46
46
46
46
46
46
46
46
46
46
46
46
46
46
46
46
46
46
46
46
46
46
46
46
46
46
46
46
46
46
46
46
46
46
46
46
221
21
21
235
15
15
235
15
15
235
15
15
238
13
13
222
21
21
211
25
25
211
25
25
211
25
25
192
30
30
46
46
46
46
46
46
46
46
46
46
46
46
46
46
46
46
46
46
46
46
46
46
46
46
46
46
46
46
46
46
242
10
10
255
0
0
228
19
19
214
24
24
201
28
28
198
29
29
191
30
30
203
28
28
228
19
19
227
19
19
46
46
46
46
46
46
46
46
46
46
46
46
46
46
46
46
46
46
46
46
46
46
46
46
46
46
46
46
46
46
249
5
5
216
23
23
59
45
45
46
46
46
46
46
46
46
46
46
46
46
46
47
46
46
84
44
44
242
10
10
46
46
46
46
46
46
46
46
46
46
46
46
46
46
46
46
46
46
46
46
46
46
46
46
46
46
46
46
46
46
253
2
2
216
23
23
47
45
45
46
46
46
46
46
46
46
46
46
46
46
46
46
46
46
76
44
44
250
4
4
108
43
43
108
43
43
46
46
46
46
46
46
46
46
46
46
46
46
46
46
46
46
46
46
46
46
46
46
46
46
254
1
1
216
23
23
67
45
45
47
46
46
46
46
46
46
46
46
46
46
46
50
46
46
93
43
43
253
1
1
192
30
30
192
30
30
211
25
25
46
46
46
46
46
46
46
46
46
46
46
46
46
46
46
46
46
46
46
46
46
254
1
1
255
0
0
255
0
0
255
0
0
255
0
0
255
0
0
241
11
11
241
11
11
241
11
11
254
1
1
46
46
46
108
43
43
192
30
30
46
46
46
46
46
46
46
46
46
46
46
46
46
46
46
46
46
46
46
46
46
254
1
1
255
0
0
255
0
0
255
0
0
254
1
1
254
0
0
255
0
0
255
0
0
255
0
0
254
1
1
46
46
46
157
37
37
157
37
37
46
46
46
46
46
46
46
46
46
46
46
46
46
46
46
46
46
46
46
46
46
254
1
1
255
0
0
255
0
0
255
0
0
254
1
1
254
1
1
255
0
0
255
0
0
255
0
0
254
1
1
46
46
46
215
24
24
174
34
34
46
46
46
46
46
46
46
46
46
46
46
46
46
46
46
46
46
46
46
46
46
254
1
1
255
0
0
255
0
0
255
0
0
254
1
1
254
1
1
255
0
0
255
0
0
255
0
0
254
1
1
108
43
43
201
28
28
46
46
46
46
46
46
46
46
46
46
46
46
46
46
46
46
46
46
46
46
46
46
46
46
254
1
1
255
0
0
255
0
0
255
0
0
254
1
1
254
1
1
255
0
0
255
0
0
255
0
0
254
1
1
157
37
37
215
24
24
46
46
46
46
46
46
46
46
46
46
46
46
46
46
46
46
46
46
46
46
46
46
46
46
254
1
1
255
0
0
255
0
0
255
0
0
254
1
1
255
0
0
255
0
0
255
0
0
255
0
0
254
0
0
211
25
25
46
46
46
46
46
46
46
46
46
46
46
46
46
46
46
46
46
46
46
46
46
46
46
46
46
46
46
255
0
0
255
0
0
255
0
0
255
0
0
255
0
0
255
0
0
255
0
0
255
0
0
255
0
0
255
0
0
46
46
46
46
46
46
46
46
46
46
46
46
46
46
46
46
46
46
46
46
46
46
46
46
46
46
46
46
46
46
254
1
1
255
0
0
255
0
0
255
0
0
255
0
0
255
0
0
255
0
0
255
0
0
255
0
0
254
1
1
46
46
46
46
46
46
46
46
46
46
46
46
46
46
46
46
46
46
46
46
46
46
46
46
46
46
46
46
46
46
253
1
1
255
0
0
255
0
0
255
0
0
255
0
0
255
0
0
255
0
0
255
0
0
255
0
0
253
1
1
46
46
46
46
46
46
46
46
46
46
46
46
46
46
46
46
46
46
46
46
46
46
46
46
46
46
46
46
46
46
250
4
4
255
0
0
255
0
0
255
0
0
255
0
0
255
0
0
255
0
0
255
0
0
255
0
0
250
4
4
46
46
46
46
46
46
46
46
46
46
46
46
46
46
46
46
46
46
46
46
46
46
46
46
46
46
46
46
46
46
235
15
15
246
8
8
250
4
4
253
2
2
254
1
1
254
1
1
253
2
2
250
4
4
245
8
8
235
15
15
46
46
46
46
46
46
46
46
46
46
46
46
46
46
46
46
46
46
46
46
46
46
46
46
46
46
46
46
46
46
46
46
46
46
46
46
46
46
46
46
46
46
46
46
46
46
46
46
46
46
46
46
46
46
46
46
46
46
46
46
46
46
46
46
46
46
46
46
46
46
46
46
46
46
46
46
46
46
46
46
46
46
46
46
46
46
46
46
46
46
46
46
46
46
46
46
46
46
46
46
46
46
46
46
46
46
46
46
46
46
46
46
46
46
46
46
46
46
46
46
46
46
46
46
46
46
46
46
46
46
46
46
46
46
46
46
46
46
