P3
20 20
255
255
255
255
255
255
255
255
255
255
255
255
255
255
255
255
46
46
46
46
46
46
46
46
46
46
46
46
46
46
46
46
46
46
46
46
46
46
46
46
46
46
46
54
157
20
54
167
13
54
167
13
54
167
13
54
167
13
54
166
13
255
255
255
255
255
255
255
255
255
255
255
255
255
255
255
46
46
46
46
46
46
46
46
46
46
46
46
46
46
46
46
46
46
46
46
46
46
46
46
46
46
46
54
161
17
55
167
12
55
167
12
55
167
12
55
167
12
54
167
13
255
255
255
255
255
255
255
255
255
255
255
255
255
255
255
46
46
46
46
46
46
46
46
46
46
46
46
46
46
46
46
46
46
46
46
46
46
46
46
46
46
46
54
161
17
55
167
12
55
167
12
55
167
12
55
167
12
54
167
13
255
255
255
255
255
255
255
255
255
255
255
255
255
255
255
46
46
46
46
46
46
46
46
46
46
46
46
46
46
46
46
46
46
46
46
46
46
46
46
46
46
46
54
161
17
55
167
12
55
167
12
55
167
12
55
167
12
54
167
13
255
255
255
255
255
255
255
255
255
255
255
255
255
255
255
46
46
46
46
46
46
46
46
46
46
46
46
46
46
46
46
46
46
46
46
46
46
46
46
46
46
46
54
161
17
55
167
13
55
167
12
55
167
12
55
167
13
54
167
13
224
224
224
224
224
224
224
224
224
224
224
224
224
224
224
46
46
46
46
46
46
46
46
46
46
46
46
46
46
46
46
46
46
46
46
46
46
46
46
46
46
46
48
103
42
51
147
25
51
147
25
51
147
25
51
147
25
51
138
30
245
225
159
245
225
159
245
225
159
245
225
159
245
225
159
46
46
46
46
46
46
46
46
46
46
46
46
46
46
46
46
46
46
46
46
46
46
46
46
46
46
46
111
81
27
113
82
26
113
82
26
113
82
26
113
82
26
111
81
27
245
225
159
245
225
160
245
225
160
245
225
160
245
225
159
46
46
46
46
46
46
46
46
46
46
46
46
46
46
46
46
46
46
46
46
46
46
46
46
46
46
46
112
81
26
113
82
25
113
82
25
113
82
25
113
82
25
112
81
26
245
225
159
245
225
160
245
225
160
245
225
160
245
225
159
46
46
46
46
46
46
46
46
46
46
46
46
46
46
46
46
46
46
46
46
46
46
46
46
46
46
46
112
81
26
113
82
25
113
82
25
113
82
25
113
82
25
112
81
26
245
225
159
245
225
160
245
225
160
245
225
160
245
225
159
46
46
46
46
46
46
46
46
46
46
46
46
46
46
46
46
46
46
46
46
46
46
46
46
46
46
46
112
81
26
113
82
25
113
82
25
113
82
25
113
82
25
112
81
26
245
225
159
245
225
160
245
225
160
245
225
160
245
225
159
46
46
46
46
46
46
46
46
46
46
46
46
46
46
46
46
46
46
46
46
46
46
46
46
46
46
46
112
81
26
113
82
25
113
82
25
113
82
25
113
82
25
112
81
26
198
182
130
198
182
130
198
182
130
198
182
130
198
182
130
46
46
46
46
46
46
46
46
46
46
46
46
46
46
46
46
46
46
46
46
46
46
46
46
46
46
46
85
65
36
101
75
32
101
75
32
101
75
32
101
75
32
85
65
36
221
21
21
235
15
15
235
15
15
235
15
15
235
15
15
177
80
34
236
127
14
242
131
10
249
134
5
252
136
2
251
135
3
236
127
14
226
122
19
157
89
37
48
131
185
49
132
186
49
132
186
49
132
186
49
132
186
48
131
185
246
7
7
255
0
0
255
0
0
255
0
0
255
50
0
253
132
2
255
137
0
255
137
0
255
137
0
255
137
0
255
137
0
255
137
0
255
137
0
196
107
30
48
131
185
49
132
186
49
132
186
49
132
186
49
132
186
48
131
185
254
1
1
255
0
0
255
0
0
255
0
0
255
50
0
255
136
0
255
137
0
255
137
0
255
137
0
255
137
0
255
137
0
255
137
0
255
137
0
222
120
21
48
131
185
49
132
186
49
132
186
49
132
186
49
132
186
48
131
185
255
0
0
255
0
0
255
0
0
255
0
0
255
50
0
255
137
0
255
137
0
255
137
0
255
137
0
255
137
0
255
137
0
255
137
0
255
137
0
242
131
10
48
131
186
49
132
186
49
132
186
49
132
186
49
132
186
48
131
185
255
0
0
255
0
0
255
0
0
255
0
0
255
50
0
255
137
0
255
137
0
255
137
0
255
137
0
255
137
0
255
137
0
255
137
0
255
137
0
242
131
10
49
132
186
49
132
186
49
132
186
49
132
186
49
132
186
49
132
186
254
1
1
255
0
0
255
0
0
255
0
0
255
50
0
255
136
0
255
137
0
255
137
0
255
137
0
255
137
0
255
137
0
255
137
0
255
137
0
236
130
48
49
130
183
49
132
186
49
132
186
49
132
186
49
132
186
49
132
186
252
3
3
255
0
0
255
0
0
255
0
0
254
1
1
249
132
5
255
137
0
255
137
0
255
137
0
255
137
0
255
137
0
255
137
0
255
137
0
226
127
59
49
132
186
49
132
186
49
132
186
49
132
186
49
132
186
49
132
186
235
15
15
246
8
8
246
8
8
246
8
8
240
11
11
221
116
22
254
136
1
255
137
0
255
137
0
255
137
0
255
137
0
251
135
3
235
127
15
192
116
83
49
132
186
49
132
186
49
132
186
49
132
186
49
132
186
49
132
186
