P3
20 20
255
255
255
255
255
255
255
255
255
255
255
255
255
255
255
255
46
46
46
46
46
46
46
46
46
46
46
46
46
46
46
46
46
46
46
46
46
46
46
46
19
19
19
0
0
0
0
0
0
0
0
0
0
0
0
0
0
0
2
19
0
255
255
255
255
255
255
255
255
255
255
255
255
255
255
255
46
46
46
46
46
46
46
46
46
46
46
46
46
46
46
46
46
46
46
46
46
46
46
46
7
7
7
0
0
0
0
0
0
0
0
0
0
0
0
0
0
0
1
14
0
255
255
255
255
255
255
255
255
255
255
255
255
255
255
255
46
46
46
46
46
46
46
46
46
46
46
46
46
46
46
46
46
46
46
46
46
46
46
46
4
4
4
0
0
0
0
0
0
0
0
0
0
0
0
0
0
0
0
1
0
255
255
255
255
255
255
255
255
255
255
255
255
255
255
255
46
46
46
46
46
46
46
46
46
46
46
46
46
46
46
46
46
46
46
46
46
46
46
46
4
4
4
0
0
0
0
0
0
0
0
0
0
0
0
0
0
0
0
0
0
255
255
255
255
255
255
255
255
255
255
255
255
255
255
255
46
46
46
46
46
46
46
46
46
46
46
46
46
46
46
46
46
46
46
46
46
46
46
46
8
8
8
0
0
0
0
0
0
0
0
0
0
0
0
0
0
0
0
0
0
224
224
224
224
224
224
224
224
224
224
224
224
224
224
224
46
46
46
46
46
46
46
46
46
46
46
46
46
46
46
46
46
46
46
46
46
46
46
46
15
15
15
0
2
0
0
0
0
0
0
0
0
0
0
0
0
0
0
0
0
71
70
68
70
69
68
70
69
68
70
69
68
74
72
69
53
53
53
46
46
46
46
46
46
46
46
46
46
46
46
46
46
46
46
46
46
46
46
46
18
18
18
9
4
0
0
0
0
0
0
0
0
0
0
0
0
0
0
0
0
68
68
68
67
67
67
67
67
67
67
67
67
68
68
68
59
59
59
46
46
46
46
46
46
46
46
46
46
46
46
46
46
46
46
46
46
43
43
43
4
4
4
0
0
0
0
0
0
0
0
0
0
0
0
0
0
0
0
0
0
68
68
68
67
67
67
67
67
67
67
67
67
68
68
68
59
59
59
46
46
46
46
46
46
46
46
46
46
46
46
46
46
46
46
46
46
43
43
43
3
3
3
0
0
0
0
0
0
0
0
0
0
0
0
0
0
0
0
0
0
68
68
68
67
67
67
67
67
67
67
67
67
68
68
68
59
59
59
46
46
46
46
46
46
46
46
46
46
46
46
46
46
46
46
46
46
43
43
43
3
3
3
0
0
0
0
0
0
0
0
0
0
0
0
0
0
0
0
0
0
68
68
68
67
67
67
67
67
67
67
67
67
68
68
68
59
59
59
46
46
46
46
46
46
46
46
46
46
46
46
46
46
46
46
46
46
43
43
43
3
3
3
0
0
0
0
0
0
0
0
0
0
0
0
0
0
0
0
0
0
68
68
66
68
68
66
68
68
66
68
68
68
69
69
69
53
53
53
46
46
46
46
46
46
46
46
46
46
46
46
46
46
46
46
46
46
45
45
45
38
38
38
99
99
99
133
133
133
133
133
133
133
133
133
133
133
133
99
99
99
46
46
46
46
46
46
46
46
46
47
46
46
47
46
46
46
46
46
46
46
46
46
46
46
46
46
46
46
46
46
46
46
46
46
46
46
46
46
46
64
59
57
240
241
243
253
253
253
254
254
254
255
255
255
254
254
254
248
248
248
46
46
46
46
46
46
46
46
46
46
46
46
46
46
46
46
46
46
46
46
46
46
46
46
46
46
46
46
46
46
46
46
46
46
46
46
46
46
46
56
54
53
254
255
255
255
255
255
255
255
255
255
255
255
255
255
255
255
255
255
46
46
46
46
46
46
46
46
46
46
46
46
46
46
46
46
46
46
46
46
46
46
46
46
46
46
46
46
46
46
46
46
46
46
46
46
46
46
46
51
49
49
255
255
255
255
255
255
255
255
255
255
255
255
255
255
255
255
255
255
46
46
46
46
46
46
46
46
46
46
46
46
46
46
46
46
46
46
46
46
46
46
46
46
46
46
46
46
46
46
46
46
46
46
46
46
46
46
46
48
48
48
255
255
255
255
255
255
255
255
255
255
255
255
255
255
255
255
255
255
46
46
46
46
46
46
46
46
46
46
46
46
46
46
46
46
46
46
46
46
46
46
46
46
46
46
46
46
46
46
46
46
46
46
46
46
46
46
46
48
48
47
243
243
243
255
255
255
255
255
255
255
255
255
255
255
255
255
255
255
46
46
46
46
46
46
46
46
46
46
46
46
46
46
46
46
46
46
46
46
46
46
46
46
46
46
46
46
46
46
46
46
46
46
46
46
46
46
46
49
49
49
241
241
241
255
255
255
255
255
255
255
255
255
255
255
255
255
255
255
46
46
46
46
46
46
46
46
46
46
46
46
46
46
46
46
46
46
46
46
46
46
46
46
46
46
46
46
46
46
46
46
46
46
46
46
46
46
46
54
52
52
241
241
241
255
255
255
255
255
255
255
255
255
255
255
255
255
255
255
46
46
46
46
46
46
46
46
46
46
46
46
46
46
46
46
46
46
46
46
46
46
46
46
46
46
46
46
46
46
46
46
46
46
46
46
46
46
46
63
61
61
241
241
241
255
255
255
255
255
255
255
255
255
255
255
255
255
255
255
