P3
20 20
255
46
46
46
46
46
46
46
46
46
46
46
46
46
46
46
46
46
46
46
46
46
46
46
46
46
46
46
46
46
46
46
46
46
46
46
46
46
46
46
46
46
46
46
46
46
46
46
46
46
46
46
46
46
46
46
46
46
46
46
46
46
46
46
46
46
46
46
46
46
46
46
46
46
46
46
46
46
46
46
46
46
46
46
46
46
46
46
46
46
46
46
46
46
46
46
46
46
46
46
46
46
46
46
46
46
46
46
46
46
46
46
46
46
46
46
46
46
46
46
46
46
46
46
46
46
46
46
46
46
46
46
46
46
46
46
46
46
46
46
46
46
46
46
46
46
46
46
46
46
46
46
46
46
46
46
46
46
46
46
46
46
46
46
46
46
46
46
46
46
46
46
46
46
46
46
46
46
46
46
46
46
46
46
46
46
46
46
46
46
46
46
46
196
29
29
240
11
11
240
11
11
196
29
29
46
46
46
46
46
46
46
46
46
46
46
46
46
46
46
46
46
46
46
46
46
46
46
46
46
46
46
46
46
46
46
46
46
46
46
46
46
46
46
46
46
46
46
46
46
157
37
37
242
10
10
255
0
0
255
0
0
217
23
23
46
46
46
46
46
46
46
46
46
46
46
46
46
46
46
46
46
46
46
46
46
46
46
46
46
46
46
46
46
46
46
46
46
46
46
46
46
46
46
46
46
46
108
43
43
226
19
19
255
0
0
255
0
0
255
0
0
230
17
17
46
46
46
46
46
46
46
46
46
46
46
46
46
46
46
46
46
46
46
46
46
46
46
46
46
46
47
46
46
47
46
46
47
46
46
46
46
46
46
46
46
46
217
23
23
249
5
5
255
0
0
255
0
0
255
0
0
217
23
23
46
46
46
46
46
46
46
46
46
46
46
46
46
46
46
46
46
46
46
46
46
46
46
46
46
46
46
46
46
46
46
46
46
46
46
46
46
46
46
192
30
30
242
10
10
255
0
0
251
3
3
255
0
0
254
0
0
217
23
23
46
46
46
46
46
46
46
46
46
46
46
46
46
46
46
46
46
46
46
46
46
46
46
46
46
46
46
46
46
46
46
46
46
46
46
46
174
35
35
240
12
12
255
0
0
251
4
4
247
6
6
255
0
0
255
0
0
236
14
14
204
27
27
217
23
23
217
23
23
217
23
23
217
23
23
217
23
23
217
23
23
217
23
23
217
23
23
230
17
17
217
23
23
196
29
29
251
3
3
255
0
0
255
0
0
254
1
1
254
1
1
255
0
0
255
0
0
254
1
1
254
0
0
254
0
0
254
0
0
254
0
0
254
0
0
254
0
0
254
0
0
254
0
0
254
0
0
255
0
0
255
0
0
240
11
11
255
0
0
255
0
0
255
0
0
255
0
0
255
0
0
255
0
0
255
0
0
255
0
0
254
0
0
254
0
0
254
0
0
254
0
0
254
0
0
254
0
0
254
0
0
254
0
0
254
0
0
255
0
0
255
0
0
240
11
11
249
5
5
254
0
0
255
0
0
253
2
2
252
2
2
255
0
0
255
0
0
250
5
5
229
18
18
217
23
23
217
23
23
217
23
23
217
23
23
217
23
23
217
23
23
217
23
23
217
23
23
230
17
17
217
23
23
196
29
29
108
43
43
226
19
19
254
0
0
254
1
1
246
7
7
254
0
0
254
0
0
217
23
23
46
46
46
46
46
46
46
46
46
46
46
46
46
46
46
46
46
46
46
46
46
46
46
46
46
46
46
46
46
46
46
46
46
46
46
46
46
46
46
157
37
37
242
10
10
255
0
0
252
2
2
255
0
0
254
0
0
217
23
23
46
46
46
46
46
46
46
46
46
46
46
46
46
46
46
46
46
46
46
46
46
46
46
46
46
46
46
46
46
46
46
46
46
46
46
46
46
46
46
46
46
46
217
23
23
249
5
5
255
0
0
255
0
0
254
0
0
217
23
23
46
46
46
46
46
46
46
46
46
46
46
46
46
46
46
46
46
46
46
46
46
46
46
46
46
46
46
46
46
46
46
46
46
46
46
46
46
46
46
46
46
46
108
43
43
226
19
19
255
0
0
255
0
0
255
0
0
217
23
23
46
46
46
46
46
46
46
46
46
46
46
46
46
46
46
46
46
46
46
46
46
46
46
46
46
46
46
46
46
46
46
46
46
46
46
46
46
46
46
46
46
46
46
46
46
157
37
37
251
4
4
255
0
0
255
0
0
217
23
23
46
46
46
46
46
46
46
46
46
46
46
46
46
46
46
46
46
46
46
46
46
46
46
46
46
46
46
46
46
46
46
46
46
46
46
46
46
46
46
46
46
46
46
46
46
46
46
46
236
15
15
254
0
0
254
0
0
196
30
30
46
46
46
46
46
46
46
46
46
46
46
46
46
46
46
46
46
46
46
46
46
46
46
46
46
46
46
46
46
46
46
46
46
46
46
46
46
46
46
46
46
46
46
46
46
46
46
46
157
37
37
211
25
25
211
25
25
157
37
37
46
46
46
46
46
46
46
46
46
46
46
46
46
46
46
46
46
46
46
46
46
46
46
46
46
46
46
46
46
46
46
46
46
46
46
46
46
46
46
46
46
46
46
46
46
46
46
46
46
46
46
46
46
46
46
46
46
46
46
46
46
46
46
46
46
46
46
46
46
46
46
46
46
46
46
46
46
46
46
46
46
46
46
46
46
46
46
46
46
46
46
46
46
46
46
46
